<svg xmlns="http://www.w3.org/2000/svg" viewBox="0 0 1024 1024" role="img" aria-labelledby="title desc">
  <title id="title">Alexsandro Moraes Tech</title>
  <desc id="desc">Monograma AM em azul e branco sobre circulo azul escuro.</desc>
  <defs>
    <radialGradient id="bg" cx="50%" cy="42%" r="58%">
      <stop offset="0%" stop-color="#07162f"/>
      <stop offset="58%" stop-color="#061126"/>
      <stop offset="100%" stop-color="#020713"/>
    </radialGradient>
    <linearGradient id="blue" x1="24%" x2="70%" y1="66%" y2="19%">
      <stop offset="0%" stop-color="#0d5cff"/>
      <stop offset="48%" stop-color="#02a8ff"/>
      <stop offset="100%" stop-color="#5ee7ff"/>
    </linearGradient>
    <linearGradient id="white" x1="56%" x2="86%" y1="56%" y2="78%">
      <stop offset="0%" stop-color="#ffffff"/>
      <stop offset="100%" stop-color="#dfe4ea"/>
    </linearGradient>
    <linearGradient id="shadow" x1="38%" x2="72%" y1="36%" y2="64%">
      <stop offset="0%" stop-color="#002d75" stop-opacity=".28"/>
      <stop offset="100%" stop-color="#00040d" stop-opacity=".54"/>
    </linearGradient>
  </defs>
  <rect width="1024" height="1024" fill="transparent"/>
  <circle cx="512" cy="512" r="492" fill="url(#bg)" stroke="#2f405f" stroke-opacity=".55" stroke-width="2"/>
  <path fill="url(#blue)" d="M282 748l44-99V384l180-158 180 158-57 47-123-99-114 100v274l-111 72z"/>
  <path fill="#087fff" d="M326 384l66 48v274l-66-57z"/>
  <path fill="url(#shadow)" d="M392 432l114 97 160-98 20-47-180-158z"/>
  <path fill="#061126" d="M392 432l114-100 123 99-123 101z"/>
  <path fill="url(#blue)" d="M326 384l66 48 114 100v89L326 467z"/>
  <path fill="url(#white)" d="M506 532l180-148v276l69 51V370L506 621z"/>
  <path fill="#ffffff" d="M686 384l69-55v382l-69-51z"/>
</svg>
